<svg width="276" height="26" viewBox="0 0 276 26" fill="none" xmlns="http://www.w3.org/2000/svg">
<g clip-path="url(#clip0_128_726)">
<path d="M129.07 25.7216V17.7064L129.478 17.6117C129.64 17.9934 129.793 18.3808 129.967 18.7596C130.505 19.9075 130.884 21.1932 131.625 22.2033C133.651 24.9956 136.059 25.8106 140.059 24.8865C141.694 24.5077 142.814 23.3885 143.381 21.7843C144.189 19.5115 143.517 17.6834 141.3 16.6934C139.853 16.0506 138.302 15.6832 136.812 15.1523C135.503 14.6845 134.132 14.3115 132.936 13.6342C128.477 11.1088 128.21 5.20288 132.358 2.20972C135.359 0.0487958 138.615 -0.0114817 141.963 1.22825C142.996 1.60993 143.931 1.94858 145.025 0.596921V7.60486L144.55 8.06689C144.48 7.75282 144.394 7.44249 144.293 7.13709C144.003 6.33643 143.714 5.52429 143.341 4.75232C141.671 1.25696 137.694 0.0889626 134.349 2.09205C131.68 3.69051 131.602 6.71523 134.285 8.27638C135.469 8.96512 136.838 9.34967 138.14 9.82605C139.538 10.3369 140.976 10.7358 142.357 11.2839C144.909 12.3027 146.854 13.8954 147.115 16.834C147.404 20.0108 146.119 22.496 143.465 24.2609C140.745 26.0746 137.743 26.3329 134.606 25.6528C134.042 25.5294 133.483 25.3916 132.925 25.2453C131.675 24.9181 130.398 24.3212 129.07 25.7216Z" fill="white"/>
<path d="M168.797 25.538V17.7724L169.086 17.6375C169.284 17.9143 169.465 18.2018 169.63 18.4985C170.244 19.7784 170.672 21.1817 171.474 22.3296C173.407 25.0874 177.123 26.0402 180.249 24.7718C181.191 24.3924 181.999 23.7454 182.572 22.9122C183.144 22.0789 183.456 21.0965 183.467 20.0883C183.45 18.045 182.09 17.0119 180.385 16.3834C178.495 15.6861 176.53 15.1925 174.629 14.5238C170.866 13.2038 169.089 10.8649 169.205 7.50156C169.321 4.08942 172.337 0.944151 176.108 0.582562C177.65 0.433334 179.256 0.697353 180.813 0.924063C182.139 1.11634 183.392 2.47948 184.865 0.576834V7.61634L184.576 7.74835C184.367 7.50351 184.183 7.23921 184.026 6.95917C183.676 6.1786 183.424 5.3521 183.036 4.58875C181.392 1.34305 177.725 0.195158 174.467 1.90553C173.118 2.61436 172.189 3.66182 172.122 5.25741C172.056 6.85299 173.037 7.86314 174.359 8.46005C175.885 9.14879 177.497 9.64527 179.08 10.2106C180.072 10.5636 181.106 10.8448 182.072 11.2437C184.72 12.3227 186.752 13.9815 186.934 17.0435C187.128 20.3437 185.635 22.8203 182.813 24.525C179.546 26.4965 176.107 26.1894 172.62 25.2309C170.533 24.6598 170.513 24.677 168.797 25.538Z" fill="white"/>
<path d="M205.807 1.18233H217.128L217.154 1.61854L214.619 1.78498L221.371 13.1808C223.469 9.27792 225.423 5.61611 227.486 1.79072L224.592 1.65298C225.223 0.792051 230.438 0.691599 231.616 1.55253C231.13 1.6214 230.771 1.76202 230.459 1.70176C228.844 1.39757 228.088 2.21544 227.42 3.56423C225.831 6.76401 224.051 9.8777 222.427 13.0545C222.06 13.8148 221.862 14.645 221.849 15.4881C221.779 18.5214 221.82 21.5576 221.82 24.6713L224.983 24.8865L224.963 25.2998H213.386C213.386 25.162 213.363 25.0128 213.349 24.8894L216.483 24.6857C216.483 21.615 216.497 18.5874 216.46 15.5627C216.46 15.2183 216.17 14.8711 215.985 14.5439C213.806 10.7874 211.577 7.06247 209.468 3.26865C208.84 2.14371 208.18 1.45496 206.811 1.70176C206.488 1.71868 206.164 1.69457 205.847 1.63002C205.824 1.47792 205.815 1.33156 205.807 1.18233Z" fill="white"/>
<path d="M205.807 1.1823H217.128L217.154 1.61851L214.619 1.78495L221.371 13.1808C223.469 9.27789 225.423 5.61608 227.486 1.79069L224.592 1.65295C225.223 0.792021 230.438 0.691569 231.616 1.5525C231.13 1.62137 230.771 1.76199 230.459 1.70173C228.844 1.39753 228.088 2.21541 227.42 3.5642C225.831 6.76398 224.051 9.87767 222.428 13.0545C222.06 13.8147 221.862 14.6449 221.849 15.488C221.779 18.5214 221.82 21.5576 221.82 24.6713L224.983 24.8865L224.963 25.2997H213.386C213.386 25.162 213.363 25.0128 213.349 24.8894L216.483 24.6856C216.483 21.615 216.497 18.5874 216.46 15.5627C216.46 15.2183 216.17 14.871 215.985 14.5439C213.806 10.7874 211.578 7.06244 209.468 3.26862C208.84 2.14368 208.18 1.45493 206.811 1.70173C206.488 1.71865 206.164 1.69454 205.847 1.62999C205.824 1.47789 205.815 1.33153 205.807 1.1823Z" fill="white"/>
<path d="M64.5779 17.649V25.3629H42.4612L42.4207 24.9038L45.4566 24.6828V1.72474H42.2905C43.0805 0.794942 52.8221 0.674409 54.3473 1.57838L50.9699 1.79361C50.9352 2.23556 50.8802 2.60575 50.8802 2.97595C50.8802 9.78302 50.8946 16.5901 50.857 23.3971C50.857 24.4245 51.0798 24.8865 52.2114 24.7861C53.2649 24.6914 54.3299 24.766 55.3949 24.766C59.736 24.766 62.1932 22.9925 63.5563 18.9318C63.7184 18.4468 63.9412 17.979 64.1351 17.4969L64.5779 17.649Z" fill="white"/>
<path d="M98.5314 24.7689H101.819C99.1276 18.6018 96.5258 12.647 93.7822 6.36512C91.1775 12.5982 88.7146 18.5243 86.1533 24.6684L89.0474 24.8521L89.03 25.4031C86.8132 25.5954 84.5876 25.5007 82.3736 25.449L82.3129 24.9669C82.8049 24.898 83.3113 24.7316 83.7889 24.7861C84.8799 24.9152 85.3922 24.4762 85.8147 23.4717C88.7928 16.1998 91.8344 8.95651 94.8588 1.70176C94.9249 1.47257 95.0223 1.2534 95.1482 1.05032C95.4376 0.680125 95.7993 0.347241 96.1292 0C96.465 0.335762 96.9396 0.611252 97.1191 1.01589C99.3475 5.97196 101.53 10.9453 103.726 15.9157C104.785 18.3119 105.926 20.6766 106.872 23.1159C107.355 24.3556 107.963 25.0214 109.37 24.7775C109.766 24.7086 110.197 24.8349 110.73 24.8837C109.758 25.7331 99.6109 25.7389 98.5314 24.7689Z" fill="white"/>
<path d="M21.4067 1.46356V8.16733L21.0855 8.27063C20.8881 8.00226 20.7101 7.72031 20.553 7.42693C20.197 6.64922 19.9249 5.82846 19.5313 5.07085C18.0293 2.15231 15.5433 0.840831 12.3193 1.21964C9.09526 1.59845 7.30666 3.13664 6.7018 6.60043C5.90286 11.0125 5.9264 15.5325 6.77125 19.9362C7.26904 22.4788 8.43249 24.5278 11.2832 25.0415C14.3075 25.5954 16.973 24.9583 18.8455 22.3927C19.5921 21.3711 20.0668 20.1486 20.6485 19.0093C20.825 18.6678 20.9552 18.3033 21.1086 17.9474L21.5138 18.0249V25.5695C19.8497 24.1146 18.2522 25.2137 16.6546 25.5695C8.091 27.5238 -0.00377712 21.2878 0.22775 12.8766C0.441913 5.08807 8.42956 -0.998691 16.1018 0.780558C16.6971 0.96546 17.3031 1.11495 17.9164 1.22824C19.0046 1.35738 20.1015 1.38321 21.4067 1.46356Z" fill="white"/>
</g>
<path d="M249.822 1.1823H261.144L261.17 1.61851L258.635 1.78495L265.386 13.1808C267.485 9.27789 269.438 5.61608 271.502 1.79069L268.608 1.65295C269.238 0.792021 274.454 0.691569 275.632 1.5525C275.145 1.62137 274.786 1.76199 274.474 1.70173C272.859 1.39753 272.104 2.21541 271.435 3.5642C269.846 6.76398 268.066 9.87767 266.443 13.0545C266.075 13.8147 265.877 14.6449 265.864 15.488C265.795 18.5214 265.835 21.5576 265.835 24.6713L268.998 24.8865L268.978 25.2997H257.402C257.402 25.162 257.378 25.0128 257.364 24.8894L260.498 24.6856C260.498 21.615 260.513 18.5874 260.475 15.5627C260.475 15.2183 260.186 14.871 260.001 14.5439C257.821 10.7874 255.593 7.06244 253.483 3.26862C252.855 2.14368 252.195 1.45493 250.826 1.70173C250.503 1.71865 250.179 1.69454 249.863 1.62999C249.839 1.47789 249.831 1.33153 249.822 1.1823Z" fill="white"/>
<defs>
<clipPath id="clip0_128_726">
<rect width="231.4" height="26" fill="white" transform="translate(0.22197)"/>
</clipPath>
</defs>
</svg>
