<svg width="24" height="24" viewBox="0 0 24 24" fill="none" xmlns="http://www.w3.org/2000/svg">
<path d="M5.31891 14.5035L4.4835 17.6222L1.43011 17.6868C0.517595 15.9943 6.62359e-07 14.0578 4.82459e-07 12C3.08497e-07 10.0101 0.483938 8.1336 1.34175 6.48131L1.34241 6.48131L4.06078 6.97968L5.25159 9.68175C5.00236 10.4084 4.86652 11.1884 4.86652 12C4.86661 12.8809 5.02617 13.7249 5.31891 14.5035Z" fill="#E18A07"/>
<path d="M23.7903 9.75825C23.9281 10.4842 24 11.2338 24 12C24 12.8591 23.9097 13.6972 23.7376 14.5055C23.1534 17.2563 21.627 19.6583 19.5126 21.358L19.5119 21.3574L16.088 21.1827L15.6034 18.1576C17.0064 17.3348 18.1029 16.0471 18.6805 14.5055L12.2638 14.5055L12.2638 9.75826L18.7741 9.75825L23.7903 9.75825Z" fill="#E18A07"/>
<path d="M19.5119 21.3574L19.5125 21.358C17.4561 23.011 14.8437 24 12 24C7.43011 24 3.45694 21.4457 1.43011 17.6868L5.3189 14.5035C6.33229 17.2081 8.94131 19.1334 12 19.1334C13.3147 19.1334 14.5464 18.778 15.6033 18.1576L19.5119 21.3574Z" fill="#E18A07"/>
<path d="M19.6596 2.76262L15.7721 5.94525C14.6783 5.26153 13.3853 4.86656 12 4.86656C8.87208 4.86656 6.21427 6.88017 5.25164 9.68175L1.34241 6.48131L1.34175 6.48131C3.33891 2.63077 7.36219 -5.26323e-07 12 -9.31774e-07C14.9116 -1.18632e-06 17.5813 1.03715 19.6596 2.76262Z" fill="#E18A07"/>
</svg>
