<svg width="27" height="19" viewBox="0 0 27 19" fill="none" xmlns="http://www.w3.org/2000/svg">
<path d="M17.4949 10.6207L15.2336 12.8896C14.3166 13.8098 12.7032 13.8297 11.7664 12.8896L9.50495 10.6207L1.38301 18.769C1.68534 18.9088 2.01867 18.9922 2.37305 18.9922H24.627C24.9813 18.9922 25.3146 18.9089 25.6168 18.769L17.4949 10.6207Z" fill="#E18A07"/>
<path d="M24.627 0.0078125H2.37305C2.01867 0.0078125 1.68534 0.0912384 1.38312 0.231037L10.062 8.93869C10.0626 8.93927 10.0632 8.93938 10.0638 8.93996C10.0644 8.94054 10.0645 8.94133 10.0645 8.94133L12.8865 11.7726C13.1862 12.0724 13.8139 12.0724 14.1136 11.7726L16.935 8.94181C16.935 8.94181 16.9357 8.94054 16.9363 8.93996C16.9363 8.93996 16.9375 8.93927 16.9381 8.93869L25.6168 0.230984C25.3146 0.0911329 24.9813 0.0078125 24.627 0.0078125Z" fill="#E18A07"/>
<path d="M0.252387 1.33734C0.0959765 1.65364 0 2.00475 0 2.38085V16.6191C0 16.9952 0.0958711 17.3463 0.252334 17.6626L8.38835 9.50025L0.252387 1.33734Z" fill="#E18A07"/>
<path d="M26.7476 1.33725L18.6117 9.50027L26.7476 17.6628C26.904 17.3465 27 16.9954 27 16.6191V2.38086C27 2.00466 26.904 1.65355 26.7476 1.33725Z" fill="#E18A07"/>
</svg>
