<svg width="16" height="18" viewBox="0 0 16 18" fill="none" xmlns="http://www.w3.org/2000/svg">
<path d="M8 9.5625C5.6225 9.5625 3.6875 7.6275 3.6875 5.25C3.6875 2.8725 5.6225 0.9375 8 0.9375C10.3775 0.9375 12.3125 2.8725 12.3125 5.25C12.3125 7.6275 10.3775 9.5625 8 9.5625ZM8 2.0625C7.15523 2.06448 6.34562 2.40094 5.74828 2.99828C5.15094 3.59563 4.81448 4.40523 4.8125 5.25C4.81448 6.09477 5.15094 6.90437 5.74828 7.50172C6.34562 8.09906 7.15523 8.43552 8 8.4375C8.84476 8.43552 9.65437 8.09906 10.2517 7.50172C10.8491 6.90437 11.1855 6.09477 11.1875 5.25C11.1855 4.40523 10.8491 3.59563 10.2517 2.99828C9.65437 2.40094 8.84476 2.06448 8 2.0625V2.0625ZM14.4425 17.0625C14.135 17.0625 13.88 16.8075 13.88 16.5C13.88 13.9125 11.24 11.8125 8 11.8125C4.76 11.8125 2.11999 13.9125 2.11999 16.5C2.11999 16.8075 1.865 17.0625 1.5575 17.0625C1.25 17.0625 0.994995 16.8075 0.994995 16.5C0.994995 13.2975 4.1375 10.6875 8 10.6875C11.8625 10.6875 15.005 13.2975 15.005 16.5C15.005 16.8075 14.75 17.0625 14.4425 17.0625Z" fill="#E18A07"/>
</svg>
