<svg width="24" height="24" viewBox="0 0 24 24" fill="none" xmlns="http://www.w3.org/2000/svg">
<path d="M18.2464 15.8765C17.4623 15.1024 16.4835 15.1024 15.7044 15.8765C15.1101 16.4658 14.5158 17.0551 13.9314 17.6544C13.7716 17.8192 13.6368 17.8542 13.442 17.7443C13.0575 17.5346 12.6479 17.3648 12.2784 17.135C10.5554 16.0513 9.11207 14.6579 7.83356 13.0897C7.1993 12.3107 6.63496 11.4766 6.24042 10.5377C6.16051 10.3479 6.17549 10.2231 6.33031 10.0683C6.92462 9.49394 7.50394 8.90463 8.08826 8.31531C8.90231 7.49627 8.90231 6.53739 8.08327 5.71335C7.61881 5.2439 7.15435 4.78443 6.68989 4.31498C6.21045 3.83554 5.736 3.3511 5.25157 2.87666C4.46748 2.11255 3.48863 2.11255 2.70953 2.88165C2.11023 3.47096 1.5359 4.07526 0.926615 4.65458C0.362273 5.18896 0.0776052 5.8432 0.0176751 6.60731C-0.0772142 7.85086 0.22743 9.02449 0.656929 10.1682C1.5359 12.5354 2.87434 14.6379 4.49745 16.5657C6.68989 19.1726 9.30684 21.2352 12.3683 22.7235C13.7467 23.3927 15.175 23.9071 16.7282 23.992C17.7969 24.052 18.7258 23.7823 19.47 22.9482C19.9794 22.3789 20.5537 21.8595 21.0931 21.3151C21.8922 20.5061 21.8972 19.5272 21.1031 18.7282C20.1542 17.7743 19.2003 16.8254 18.2464 15.8765Z" fill="#E18A07"/>
<path d="M17.2925 11.8961L19.1354 11.5815C18.8457 9.88846 18.0466 8.35525 16.8331 7.13667C15.5496 5.85317 13.9264 5.04411 12.1385 4.7944L11.8788 6.64724C13.2622 6.84201 14.5208 7.46629 15.5146 8.46013C16.4535 9.39903 17.0678 10.5876 17.2925 11.8961Z" fill="#E18A07"/>
<path d="M20.1742 3.88547C18.0466 1.75795 15.3548 0.414516 12.3832 0L12.1236 1.85284C14.6906 2.21242 17.0178 3.37606 18.8557 5.20892C20.5987 6.95189 21.7423 9.15432 22.1568 11.5765L23.9997 11.2619C23.5153 8.45514 22.1918 5.90811 20.1742 3.88547Z" fill="#E18A07"/>
</svg>
